<svg width="32" height="29" viewBox="0 0 32 29" fill="none" xmlns="http://www.w3.org/2000/svg">
<path d="M25.7781 0H6.22189C5.99966 0 5.78854 0.111115 5.66631 0.30001L0.110565 8.47807C-0.0505513 8.72252 -0.0338841 9.04475 0.149456 9.26698L15.4833 28.201C15.75 28.5288 16.25 28.5288 16.5167 28.201L31.8505 9.26698C32.0339 9.0392 32.0506 8.72252 31.8894 8.47807L26.3392 0.30001C26.2115 0.111115 26.0059 0 25.7781 0ZM24.7059 2.66676L28.2226 8.00027H24.4225L21.5502 2.66676H24.7059ZM13.4777 2.66676H18.5168L21.3891 8.00027H10.6109L13.4777 2.66676ZM7.29415 2.66676H10.4498L7.57749 8.00027H3.77736L7.29415 2.66676ZM4.90517 10.667H7.76083L11.5554 19.5562L4.90517 10.667ZM10.622 10.667H21.378L16 24.1842L10.622 10.667ZM20.4446 19.5562L24.2336 10.667H27.0893L20.4446 19.5562Z" fill="#3657dc"/>
</svg>
