<svg width="226" height="64" viewBox="0 0 226 64" fill="none" xmlns="http://www.w3.org/2000/svg">
<path d="M75.87 43.435C75.54 42.995 75.375 42.445 75.375 41.785C75.375 40.8317 75.8517 40.025 76.805 39.365C77.3183 39.035 77.85 38.87 78.4 38.87C79.17 38.87 79.9033 39.2183 80.6 39.915C81.7 41.0517 82.8367 41.895 84.01 42.445C85.22 42.995 86.6683 43.27 88.355 43.27C91.215 43.16 92.645 42.0783 92.645 40.025C92.645 38.9617 92.15 38.155 91.16 37.605C90.2067 37.055 88.7033 36.505 86.65 35.955C84.5233 35.3683 82.7817 34.7817 81.425 34.195C80.105 33.6083 78.95 32.7283 77.96 31.555C77.0067 30.345 76.53 28.7317 76.53 26.715C76.53 24.955 77.025 23.4333 78.015 22.15C79.0417 20.83 80.3617 19.8217 81.975 19.125C83.625 18.3917 85.3667 18.025 87.2 18.025C89.07 18.025 90.94 18.3733 92.81 19.07C94.68 19.7667 96.1467 20.7933 97.21 22.15C97.6867 22.7367 97.925 23.3967 97.925 24.13C97.925 24.9733 97.5767 25.67 96.88 26.22C96.3667 26.6233 95.78 26.825 95.12 26.825C94.3133 26.825 93.6533 26.5683 93.14 26.055C92.48 25.2483 91.6183 24.6067 90.555 24.13C89.5283 23.6533 88.355 23.415 87.035 23.415C84.2483 23.415 82.855 24.4233 82.855 26.44C82.855 27.2467 83.1117 27.9067 83.625 28.42C84.1383 28.8967 84.78 29.2817 85.55 29.575C86.3567 29.8317 87.475 30.1617 88.905 30.565C90.885 31.115 92.535 31.6833 93.855 32.27C95.175 32.8567 96.2933 33.755 97.21 34.965C98.1267 36.175 98.585 37.77 98.585 39.75C98.585 41.5467 98.0533 43.1233 96.99 44.48C95.9267 45.8 94.5517 46.8083 92.865 47.505C91.215 48.2017 89.51 48.55 87.75 48.55C85.33 48.55 83.075 48.1467 80.985 47.34C78.895 46.5333 77.19 45.2317 75.87 43.435ZM114.723 18.025C117.84 18.025 120.352 18.52 122.258 19.51C124.165 20.4633 125.118 21.7467 125.118 23.36C125.118 24.1667 124.88 24.8817 124.403 25.505C123.927 26.0917 123.303 26.385 122.533 26.385C121.947 26.385 121.47 26.3117 121.103 26.165C120.737 25.9817 120.37 25.7617 120.003 25.505C119.673 25.2117 119.343 24.9733 119.013 24.79C118.647 24.6067 118.097 24.4417 117.363 24.295C116.667 24.1483 116.098 24.075 115.658 24.075C112.908 24.075 110.745 24.9367 109.168 26.66C107.628 28.3467 106.858 30.565 106.858 33.315C106.858 35.955 107.647 38.155 109.223 39.915C110.8 41.6383 112.817 42.5 115.273 42.5C117.07 42.5 118.408 42.28 119.288 41.84C119.508 41.73 119.802 41.5467 120.168 41.29C120.572 40.9967 120.938 40.7767 121.268 40.63C121.598 40.4833 122.002 40.41 122.478 40.41C123.395 40.41 124.11 40.7033 124.623 41.29C125.173 41.8767 125.448 42.6283 125.448 43.545C125.448 44.425 124.935 45.25 123.908 46.02C122.882 46.79 121.525 47.4133 119.838 47.89C118.152 48.33 116.355 48.55 114.448 48.55C111.625 48.55 109.132 47.89 106.968 46.57C104.842 45.25 103.192 43.435 102.018 41.125C100.845 38.7783 100.258 36.175 100.258 33.315C100.258 30.345 100.863 27.705 102.073 25.395C103.32 23.085 105.043 21.2883 107.243 20.005C109.443 18.685 111.937 18.025 114.723 18.025ZM156.284 33.315C156.284 36.2483 155.624 38.8883 154.304 41.235C152.984 43.545 151.169 45.3417 148.859 46.625C146.586 47.9083 144.074 48.55 141.324 48.55C138.537 48.55 136.007 47.9083 133.734 46.625C131.461 45.3417 129.664 43.545 128.344 41.235C127.024 38.8883 126.364 36.2483 126.364 33.315C126.364 30.3817 127.024 27.76 128.344 25.45C129.664 23.1033 131.461 21.2883 133.734 20.005C136.007 18.685 138.537 18.025 141.324 18.025C144.074 18.025 146.586 18.685 148.859 20.005C151.169 21.2883 152.984 23.1033 154.304 25.45C155.624 27.76 156.284 30.3817 156.284 33.315ZM149.684 33.315C149.684 31.5183 149.299 29.9233 148.529 28.53C147.796 27.1 146.787 26 145.504 25.23C144.257 24.46 142.864 24.075 141.324 24.075C139.784 24.075 138.372 24.46 137.089 25.23C135.842 26 134.834 27.1 134.064 28.53C133.331 29.9233 132.964 31.5183 132.964 33.315C132.964 35.1117 133.331 36.7067 134.064 38.1C134.834 39.4933 135.842 40.575 137.089 41.345C138.372 42.115 139.784 42.5 141.324 42.5C142.864 42.5 144.257 42.115 145.504 41.345C146.787 40.575 147.796 39.4933 148.529 38.1C149.299 36.7067 149.684 35.1117 149.684 33.315ZM187.868 33.315C187.868 36.2483 187.208 38.8883 185.888 41.235C184.568 43.545 182.753 45.3417 180.443 46.625C178.17 47.9083 175.658 48.55 172.908 48.55C170.121 48.55 167.591 47.9083 165.318 46.625C163.045 45.3417 161.248 43.545 159.928 41.235C158.608 38.8883 157.948 36.2483 157.948 33.315C157.948 30.3817 158.608 27.76 159.928 25.45C161.248 23.1033 163.045 21.2883 165.318 20.005C167.591 18.685 170.121 18.025 172.908 18.025C175.658 18.025 178.17 18.685 180.443 20.005C182.753 21.2883 184.568 23.1033 185.888 25.45C187.208 27.76 187.868 30.3817 187.868 33.315ZM181.268 33.315C181.268 31.5183 180.883 29.9233 180.113 28.53C179.38 27.1 178.371 26 177.088 25.23C175.841 24.46 174.448 24.075 172.908 24.075C171.368 24.075 169.956 24.46 168.673 25.23C167.426 26 166.418 27.1 165.648 28.53C164.915 29.9233 164.548 31.5183 164.548 33.315C164.548 35.1117 164.915 36.7067 165.648 38.1C166.418 39.4933 167.426 40.575 168.673 41.345C169.956 42.115 171.368 42.5 172.908 42.5C174.448 42.5 175.841 42.115 177.088 41.345C178.371 40.575 179.38 39.4933 180.113 38.1C180.883 36.7067 181.268 35.1117 181.268 33.315ZM206.417 18.025C208.947 18.025 211.239 18.685 213.292 20.005C215.346 21.2883 216.959 23.085 218.132 25.395C219.342 27.705 219.947 30.3267 219.947 33.26C219.947 36.1933 219.361 38.8333 218.187 41.18C217.014 43.49 215.401 45.305 213.347 46.625C211.331 47.9083 209.094 48.55 206.637 48.55C204.877 48.55 203.209 48.2017 201.632 47.505C200.092 46.7717 198.809 45.8917 197.782 44.865V55.645C197.782 56.5983 197.471 57.3867 196.847 58.01C196.224 58.67 195.436 59 194.482 59C193.529 59 192.741 58.6883 192.117 58.065C191.494 57.4417 191.182 56.635 191.182 55.645V21.93C191.182 20.9767 191.494 20.1883 192.117 19.565C192.741 18.905 193.529 18.575 194.482 18.575C195.436 18.575 196.224 18.905 196.847 19.565C197.471 20.1883 197.782 20.9767 197.782 21.93V22.15C198.662 21.05 199.891 20.0967 201.467 19.29C203.044 18.4467 204.694 18.025 206.417 18.025ZM205.592 42.5C207.939 42.5 209.864 41.62 211.367 39.86C212.871 38.1 213.622 35.9 213.622 33.26C213.622 30.62 212.871 28.4383 211.367 26.715C209.901 24.955 207.976 24.075 205.592 24.075C203.209 24.075 201.266 24.955 199.762 26.715C198.259 28.4383 197.507 30.62 197.507 33.26C197.507 35.9 198.259 38.1 199.762 39.86C201.266 41.62 203.209 42.5 205.592 42.5Z" fill="white"/>
<path d="M49.8403 9H12.0296C11.5999 9 11.1917 9.21483 10.9554 9.58005L0.213771 25.3918C-0.0977375 25.8644 -0.0655126 26.4874 0.288962 26.9171L29.936 63.5247C30.4516 64.1584 31.4183 64.1584 31.9339 63.5247L61.5809 26.9171C61.9354 26.4767 61.9676 25.8644 61.6561 25.3918L50.9252 9.58005C50.6781 9.21483 50.2807 9 49.8403 9ZM47.7671 14.156L54.5666 24.468H47.2193L41.6658 14.156H47.7671V14.156ZM26.0582 14.156H35.8009L41.3543 24.468H20.5155L26.0582 14.156ZM14.1027 14.156H20.204L14.6506 24.468H7.30327L14.1027 14.156ZM9.48383 29.624H15.005L22.3416 46.8107L9.48383 29.624V29.624ZM20.537 29.624H41.3329L30.9349 55.7585L20.537 29.624V29.624ZM39.5283 46.8107L46.8541 29.624H52.3753L39.5283 46.8107Z" fill="white"/>
</svg>
