<svg width="35" height="35" viewBox="0 0 35 35" fill="none" xmlns="http://www.w3.org/2000/svg">
<circle cx="17.5" cy="17.5" r="17.5" fill="#3657DC" fill-opacity="0.08"/>
<g clip-path="url(#clip0)">
<path d="M17.5 18.6375C20.326 18.6375 22.6188 16.3448 22.6188 13.5188C22.6188 10.6928 20.326 8.40002 17.5 8.40002C14.674 8.40002 12.3813 10.6928 12.3813 13.5188C12.3813 16.3448 14.674 18.6375 17.5 18.6375ZM22.05 19.775H20.0914C19.3022 20.1376 18.4242 20.3438 17.5 20.3438C16.5758 20.3438 15.7014 20.1376 14.9087 19.775H12.95C10.4369 19.775 8.40002 21.8119 8.40002 24.325V24.8938C8.40002 25.8358 9.16428 26.6 10.1063 26.6H24.8938C25.8358 26.6 26.6 25.8358 26.6 24.8938V24.325C26.6 21.8119 24.5632 19.775 22.05 19.775Z" fill="#3657DC"/>
</g>
<defs>
<clipPath id="clip0">
<rect width="18.2" height="18.2" fill="white" transform="translate(8.40002 8.40002)"/>
</clipPath>
</defs>
</svg>
